<svg width="317" height="137" viewBox="0 0 317 137" fill="none" xmlns="http://www.w3.org/2000/svg">
<g filter="url(#filter0_d_2312_7)">
<path d="M7.4379 23.4794C7.75971 19.4836 10.9892 16.343 14.9924 16.1326L276.762 2.38027C280.87 2.16446 284.472 5.09903 285.09 9.16572L299.97 106.947C300.75 112.068 296.53 116.569 291.369 116.121L9.92054 91.6876C5.53819 91.3072 2.2851 87.46 2.63823 83.0754L7.4379 23.4794Z" fill="#214CBC"/>
<path d="M7.4379 23.4794C7.75971 19.4836 10.9892 16.343 14.9924 16.1326L276.762 2.38027C280.87 2.16446 284.472 5.09903 285.09 9.16572L299.97 106.947C300.75 112.068 296.53 116.569 291.369 116.121L9.92054 91.6876C5.53819 91.3072 2.2851 87.46 2.63823 83.0754L7.4379 23.4794Z" stroke="#141414" stroke-width="4"/>
</g>
<defs>
<filter id="filter0_d_2312_7" x="0.611328" y="0.369049" width="315.453" height="135.783" filterUnits="userSpaceOnUse" color-interpolation-filters="sRGB">
<feFlood flood-opacity="0" result="BackgroundImageFix"/>
<feColorMatrix in="SourceAlpha" type="matrix" values="0 0 0 0 0 0 0 0 0 0 0 0 0 0 0 0 0 0 127 0" result="hardAlpha"/>
<feOffset dx="10" dy="14"/>
<feGaussianBlur stdDeviation="2"/>
<feComposite in2="hardAlpha" operator="out"/>
<feColorMatrix type="matrix" values="0 0 0 0 0 0 0 0 0 0 0 0 0 0 0 0 0 0 0.56 0"/>
<feBlend mode="normal" in2="BackgroundImageFix" result="effect1_dropShadow_2312_7"/>
<feBlend mode="normal" in="SourceGraphic" in2="effect1_dropShadow_2312_7" result="shape"/>
</filter>
</defs>
</svg>
