<svg width="235" height="172" viewBox="0 0 235 172" fill="none" xmlns="http://www.w3.org/2000/svg">
<g filter="url(#filter0_d_31_80)">
<path d="M17.9025 14.0779C17.4497 7.82352 22.8231 2.71352 29.0469 3.47984L223.239 27.3901C228.231 28.0047 231.979 32.2456 231.977 37.2745L231.924 140.993C231.922 146.736 227.072 151.285 221.341 150.922L35.5882 139.142C30.6209 138.827 26.6497 134.891 26.2903 129.927L17.9025 14.0779Z" fill="#D44343"/>
<path d="M17.9025 14.0779C17.4497 7.82352 22.8231 2.71352 29.0469 3.47984L223.239 27.3901C228.231 28.0047 231.979 32.2456 231.977 37.2745L231.924 140.993C231.922 146.736 227.072 151.285 221.341 150.922L35.5882 139.142C30.6209 138.827 26.6497 134.891 26.2903 129.927L17.9025 14.0779Z" stroke="#141414" stroke-width="4.97696"/>
</g>
<defs>
<filter id="filter0_d_31_80" x="0.387207" y="0.914673" width="234.078" height="170.516" filterUnits="userSpaceOnUse" color-interpolation-filters="sRGB">
<feFlood flood-opacity="0" result="BackgroundImageFix"/>
<feColorMatrix in="SourceAlpha" type="matrix" values="0 0 0 0 0 0 0 0 0 0 0 0 0 0 0 0 0 0 127 0" result="hardAlpha"/>
<feOffset dx="-11" dy="14"/>
<feGaussianBlur stdDeviation="2"/>
<feComposite in2="hardAlpha" operator="out"/>
<feColorMatrix type="matrix" values="0 0 0 0 0 0 0 0 0 0 0 0 0 0 0 0 0 0 0.56 0"/>
<feBlend mode="normal" in2="BackgroundImageFix" result="effect1_dropShadow_31_80"/>
<feBlend mode="normal" in="SourceGraphic" in2="effect1_dropShadow_31_80" result="shape"/>
</filter>
</defs>
</svg>
