<svg width="603" height="129" viewBox="0 0 603 129" fill="none" xmlns="http://www.w3.org/2000/svg">
<path d="M584.854 19.6318C584.555 17.048 582.365 15.0998 579.764 15.1032L26.5738 15.8422C24.2314 15.8453 22.1902 17.4383 21.6178 19.7097L7.11358 77.2733C6.33279 80.3722 8.55142 83.4208 11.7402 83.6307L590.611 121.742C593.8 121.952 596.4 119.221 596.032 116.046L584.854 19.6318Z" fill="#9ED450" stroke="#141414" stroke-width="12.7949"/>
<path d="M579.965 19.5038C579.665 16.9199 577.475 14.9717 574.874 14.9752L26.4483 15.7078C24.1059 15.7109 22.0646 17.3039 21.4923 19.5753L7.13205 76.5675C6.3512 79.6663 8.56989 82.7149 11.7587 82.9249L585.617 120.707C588.806 120.916 591.405 118.185 591.037 115.01L579.965 19.5038Z" fill="#9ED450" stroke="#802130" stroke-width="7.67695"/>
<path d="M578.878 24.4164C578.565 21.8483 576.384 19.9181 573.797 19.9186L27.2335 20.0234C24.9066 20.0239 22.8728 21.594 22.2834 23.8451L8.1535 77.8115C7.33833 80.9249 9.56499 84.0091 12.7768 84.2153L584.551 120.916C587.75 121.121 590.347 118.37 589.959 115.188L578.878 24.4164Z" fill="#FF5C5C" stroke="#141414" stroke-width="2.55898"/>
</svg>
