<svg width="39" height="42" viewBox="0 0 39 42" fill="none" xmlns="http://www.w3.org/2000/svg">
<path d="M7.49439 17.6143C7.64617 11.8181 7.72211 8.91793 9.55023 7.16504C11.3764 5.41006 14.2434 5.48513 19.9734 5.63518L26.0519 5.79435C31.782 5.94439 34.649 6.01947 36.3808 7.86763C38.1147 9.71379 38.0387 12.6139 37.8869 18.4101L37.6186 28.658C37.4668 34.4542 37.3909 37.3543 35.5627 39.1072C33.7366 40.8622 30.8696 40.7871 25.1396 40.6371L19.061 40.4779C13.331 40.3278 10.464 40.2528 8.7322 38.4046C6.99832 36.5584 7.07426 33.6583 7.22604 27.8621L7.49439 17.6143Z" stroke="#141414" stroke-width="1.91924"/>
<path d="M8.06498 36.0108C6.36248 35.9662 4.74668 35.2757 3.57303 34.091C2.39938 32.9064 1.76402 31.3247 1.80673 29.694L2.12875 17.3966C2.33114 9.66764 2.43236 5.80215 5.00299 3.46777C7.57155 1.13128 11.6071 1.23696 19.6761 1.44825L28.2351 1.67238C29.9376 1.71696 31.5534 2.40752 32.7271 3.59215C33.9007 4.77679 34.5361 6.35844 34.4934 7.98918" stroke="#141414" stroke-width="1.91924"/>
</svg>
