<svg width="534" height="113" viewBox="0 0 534 113" fill="none" xmlns="http://www.w3.org/2000/svg">
<path d="M512.75 17.0643C512.176 13.0391 508.674 10.0845 504.61 10.1963L28.4802 23.3007C24.8202 23.4014 21.6957 25.9741 20.8943 29.5467L11.1006 73.2097C10.0073 78.0839 13.5989 82.7568 18.5902 82.9544L515.409 102.62C520.401 102.818 524.35 98.4431 523.645 93.4976L512.75 17.0643Z" fill="#EF3830" stroke="#141414" stroke-width="20"/>
<path d="M512.75 17.0643C512.176 13.0391 508.674 10.0845 504.61 10.1963L28.4802 23.3007C24.8202 23.4014 21.6957 25.9741 20.8943 29.5467L11.1006 73.2097C10.0073 78.0839 13.5989 82.7568 18.5902 82.9544L515.409 102.62C520.401 102.818 524.35 98.4431 523.645 93.4976L512.75 17.0643Z" fill="#EF3830" stroke="white" stroke-width="12"/>
<path d="M512.75 17.0643C512.176 13.0391 508.674 10.0845 504.61 10.1963L28.4803 23.3007C24.8202 23.4014 21.6957 25.9741 20.8943 29.5467L11.1006 73.2097C10.0073 78.0839 13.5989 82.7568 18.5902 82.9544L515.409 102.62C520.401 102.818 524.35 98.4431 523.645 93.4976L512.75 17.0643Z" fill="#3653A1" stroke="#141414" stroke-width="4"/>
</svg>
