<svg width="40" height="40" viewBox="0 0 40 40" fill="none" xmlns="http://www.w3.org/2000/svg">
<path d="M10 18.3333C10 13.6199 10 11.2616 11.465 9.79825C12.9283 8.33325 15.2867 8.33325 20 8.33325H25C29.7133 8.33325 32.0717 8.33325 33.535 9.79825C35 11.2616 35 13.6199 35 18.3333V26.6666C35 31.3799 35 33.7383 33.535 35.2016C32.0717 36.6666 29.7133 36.6666 25 36.6666H20C15.2867 36.6666 12.9283 36.6666 11.465 35.2016C10 33.7383 10 31.3799 10 26.6666V18.3333Z" stroke="white" stroke-width="3"/>
<path d="M10 31.6666C8.67392 31.6666 7.40215 31.1398 6.46447 30.2021C5.52678 29.2644 5 27.9927 5 26.6666V16.6666C5 10.3816 5 7.23825 6.95333 5.28659C8.905 3.33325 12.0483 3.33325 18.3333 3.33325H25C26.3261 3.33325 27.5979 3.86004 28.5355 4.79772C29.4732 5.7354 30 7.00717 30 8.33325" stroke="white" stroke-width="3"/>
</svg>
