<svg width="583" height="87" viewBox="0 0 583 87" fill="none" xmlns="http://www.w3.org/2000/svg">
<path d="M565.477 18.7166C565.003 16.3399 562.927 14.6216 560.504 14.6L23.7356 9.83005C21.6049 9.81112 19.6854 11.1144 18.9168 13.1017L6.92465 44.11C5.66753 47.3606 7.95628 50.8895 11.4369 51.0674L571.135 79.6645C574.466 79.8348 577.068 76.8235 576.415 73.5521L565.477 18.7166Z" fill="#9ED450" stroke="#141414" stroke-width="12.7949"/>
<path d="M560.737 18.5925C560.262 16.2158 558.186 14.4974 555.763 14.4759L23.6126 9.74692C21.4818 9.72798 19.5623 11.0312 18.7937 13.0186L6.93579 43.6799C5.67867 46.9305 7.96743 50.4595 11.4481 50.6373L566.284 78.986C569.615 79.1563 572.216 76.145 571.564 72.8736L560.737 18.5925Z" fill="#9ED450" stroke="#802130" stroke-width="7.67695"/>
<path d="M559.737 21.5487C559.245 19.1954 557.181 17.5021 554.777 17.479L24.3978 12.3843C22.2913 12.3641 20.3876 13.6367 19.6009 15.5909L7.99939 44.4117C6.68612 47.6742 8.97879 51.2586 12.4913 51.4345L565.223 79.1027C568.573 79.2704 571.175 76.2255 570.489 72.9431L559.737 21.5487Z" fill="#FF5C5C" stroke="#141414" stroke-width="2.55898"/>
</svg>
