<svg width="230" height="106" viewBox="0 0 230 106" fill="none" xmlns="http://www.w3.org/2000/svg">
<path fill-rule="evenodd" clip-rule="evenodd" d="M197.286 60.4449C219.363 54.2582 229 45.1277 229 35.2455C229 23.0863 209.564 11.0745 177.411 5.13534C161.815 2.25466 143.492 1 122.44 1C57.9831 1 -1.45879 13.4059 1.0784 35.2455C1.0784 46.0819 12.0799 56.0468 34.4852 61.9956C40.9153 63.7029 48.2427 65.0423 56.5611 66.014C61.4947 79.1637 67.8701 87.6272 76.2201 98.7118C77.6893 100.662 79.2196 102.694 80.814 104.846C79.134 99.4095 77.5259 94.652 76.0529 90.2943C73.1653 81.7516 70.7971 74.7456 69.4258 67.1717C77.1943 67.6841 85.6853 67.9402 94.9532 67.9402C140.639 69.8793 175.192 66.6363 197.286 60.4449Z" fill="white"/>
<path d="M197.286 60.4449L197.488 61.1671L197.286 60.4449ZM177.411 5.13534L177.274 5.87287L177.411 5.13534ZM1.0784 35.2455L1.82338 35.1589C1.82672 35.1877 1.8284 35.2165 1.8284 35.2455H1.0784ZM34.4852 61.9956L34.2927 62.7205L34.4852 61.9956ZM56.5611 66.014L56.6481 65.2691C56.9272 65.3017 57.1646 65.4875 57.2633 65.7505L56.5611 66.014ZM76.2201 98.7118L76.8191 98.2605L76.2201 98.7118ZM80.814 104.846L81.5305 104.625C81.6384 104.974 81.4789 105.35 81.1527 105.515C80.8265 105.68 80.4289 105.586 80.2113 105.293L80.814 104.846ZM76.0529 90.2943L76.7634 90.0542L76.0529 90.2943ZM69.4258 67.1717L68.6878 67.3054C68.6467 67.0781 68.7125 66.8446 68.8663 66.6723C69.0201 66.5 69.2448 66.4082 69.4752 66.4234L69.4258 67.1717ZM94.9532 67.9402V67.1902C94.9638 67.1902 94.9743 67.1904 94.985 67.1909L94.9532 67.9402ZM229.75 35.2455C229.75 40.4626 227.196 45.412 221.901 49.8081C216.62 54.1925 208.58 58.0588 197.488 61.1671L197.084 59.7227C208.069 56.6443 215.886 52.852 220.943 48.654C225.986 44.4675 228.25 39.9105 228.25 35.2455H229.75ZM177.547 4.39782C193.676 7.37701 206.666 11.8874 215.645 17.2128C224.58 22.5115 229.75 28.7492 229.75 35.2455H228.25C228.25 29.5826 223.702 23.7347 214.88 18.503C206.103 13.2979 193.299 8.83283 177.274 5.87287L177.547 4.39782ZM122.44 0.25C143.518 0.25 161.891 1.50589 177.547 4.39782L177.274 5.87287C161.74 3.00343 143.466 1.75 122.44 1.75V0.25ZM0.333405 35.332C-0.348389 29.4633 3.16583 24.3604 9.4846 20.061C15.8121 15.7557 25.1152 12.1311 36.449 9.20669C59.1315 3.35409 90.1743 0.25 122.44 0.25V1.75C90.2488 1.75 59.3421 4.84888 36.8238 10.6591C25.5572 13.5662 16.447 17.138 10.3284 21.3011C4.20114 25.4702 1.23657 30.1078 1.82338 35.1589L0.333405 35.332ZM34.2927 62.7205C23.0296 59.73 14.5656 55.7139 8.90192 51.0314C3.2294 46.3416 0.3284 40.9458 0.3284 35.2455H1.8284C1.8284 40.3816 4.42816 45.3864 9.85771 49.8754C15.2961 54.3716 23.5355 58.3124 34.6776 61.2708L34.2927 62.7205ZM56.4741 66.7589C48.1281 65.784 40.7644 64.4389 34.2927 62.7205L34.6776 61.2708C41.0661 62.967 48.3572 64.3006 56.6481 65.2691L56.4741 66.7589ZM57.2633 65.7505C62.1544 78.7872 68.4668 87.1728 76.8191 98.2605L75.621 99.1631C67.2733 88.0815 60.8349 79.5403 55.8589 66.2775L57.2633 65.7505ZM76.8191 98.2605C78.2881 100.211 79.8202 102.244 81.4166 104.4L80.2113 105.293C78.619 103.143 77.0904 101.114 75.621 99.1631L76.8191 98.2605ZM80.0974 105.068C78.4207 99.6415 76.8156 94.8926 75.3424 90.5345L76.7634 90.0542C78.2363 94.4113 79.8473 99.1775 81.5305 104.625L80.0974 105.068ZM75.3424 90.5345C72.4582 82.0018 70.0707 74.943 68.6878 67.3054L70.1638 67.0381C71.5236 74.5482 73.8724 81.5014 76.7634 90.0542L75.3424 90.5345ZM94.9532 68.6902C85.6718 68.6902 77.1641 68.4337 69.3765 67.9201L69.4752 66.4234C77.2246 66.9344 85.6988 67.1902 94.9532 67.1902V68.6902ZM197.488 61.1671C175.286 67.3888 140.645 70.6302 94.9213 68.6895L94.985 67.1909C140.634 69.1284 175.098 65.8838 197.084 59.7227L197.488 61.1671Z" fill="black"/>
</svg>
