<svg width="297" height="114" viewBox="0 0 297 114" fill="none" xmlns="http://www.w3.org/2000/svg">
<path fill-rule="evenodd" clip-rule="evenodd" d="M38.9214 70.8496C12.5602 63.5202 1 53.0317 1 41.7141C1 27.2581 26.1265 12.9775 67.6927 5.91646C87.8537 2.49165 111.541 1 138.757 1C222.084 1 298.929 15.7493 295.649 41.7141C295.649 54.5974 281.426 66.4445 252.462 73.517C233.163 78.2295 207.611 80.5844 174.291 80.5844C121.266 82.6542 79.8428 79.7581 51.2599 73.8178C46.3035 87.2234 39.8788 95.7523 31.4347 106.962C29.9655 108.912 28.4352 110.944 26.8408 113.096C28.5207 107.659 30.1288 102.902 31.6018 98.5444C35.06 88.3138 37.7732 80.2871 38.9214 70.8496Z" fill="white"/>
<path d="M38.9214 70.8496L39.6659 70.9402C39.7107 70.572 39.4796 70.2264 39.1223 70.127L38.9214 70.8496ZM67.6927 5.91646L67.8183 6.65587L67.6927 5.91646ZM295.649 41.7141L294.905 41.6201C294.901 41.6512 294.899 41.6826 294.899 41.7141H295.649ZM252.462 73.517L252.64 74.2456L252.462 73.517ZM174.291 80.5844V79.8344C174.281 79.8344 174.271 79.8346 174.262 79.835L174.291 80.5844ZM51.2599 73.8178L51.4125 73.0835C51.0491 73.008 50.6851 73.2096 50.5564 73.5577L51.2599 73.8178ZM31.4347 106.962L30.8356 106.511L30.8356 106.511L31.4347 106.962ZM26.8408 113.096L26.1242 112.875C26.0163 113.224 26.1759 113.6 26.5021 113.765C26.8282 113.93 27.2259 113.836 27.4435 113.543L26.8408 113.096ZM31.6018 98.5444L30.8913 98.3043L31.6018 98.5444ZM0.25 41.7141C0.25 47.6627 3.29843 53.3115 9.60644 58.3629C15.9022 63.4044 25.4905 67.8938 38.7204 71.5722L39.1223 70.127C25.9911 66.4761 16.6187 62.0565 10.544 57.192C4.48166 52.3374 1.75 47.0831 1.75 41.7141H0.25ZM67.5671 5.17705C46.7366 8.7156 29.9755 14.0704 18.3999 20.3837C6.88723 26.6628 0.25 34.0381 0.25 41.7141H1.75C1.75 34.9341 7.67602 27.9411 19.1181 21.7006C30.4973 15.4944 47.0826 10.1783 67.8183 6.65587L67.5671 5.17705ZM138.757 0.25C111.517 0.25 87.7844 1.74268 67.5671 5.17705L67.8183 6.65587C87.923 3.24063 111.565 1.75 138.757 1.75V0.25ZM296.393 41.8081C297.269 34.8709 292.757 28.8461 284.634 23.7628C276.487 18.6649 264.492 14.3641 249.854 10.8905C220.56 3.93949 180.455 0.25 138.757 0.25V1.75C180.387 1.75 220.367 5.43515 249.507 12.35C264.086 15.8093 275.895 20.0642 283.838 25.0344C291.804 30.0192 295.668 35.5748 294.905 41.6201L296.393 41.8081ZM252.64 74.2456C267.177 70.696 278.082 65.9333 285.371 60.3916C292.665 54.8455 296.399 48.4644 296.399 41.7141H294.899C294.899 47.8471 291.521 53.8312 284.463 59.1976C277.399 64.5684 266.711 69.2655 252.284 72.7885L252.64 74.2456ZM174.291 81.3344C207.638 81.3344 233.257 78.9784 252.64 74.2456L252.284 72.7885C233.068 77.4805 207.584 79.8344 174.291 79.8344V81.3344ZM51.1073 74.5521C79.7716 80.5093 121.261 83.405 174.32 81.3339L174.262 79.835C121.271 81.9035 79.9141 79.0069 51.4125 73.0835L51.1073 74.5521ZM50.5564 73.5577C45.6425 86.8484 39.2816 95.2985 30.8356 106.511L32.0337 107.413C40.4759 96.2061 46.9645 87.5984 51.9633 74.0779L50.5564 73.5577ZM30.8356 106.511C29.3667 108.461 27.8346 110.494 26.2381 112.65L27.4435 113.543C29.0358 111.393 30.5644 109.364 32.0337 107.413L30.8356 106.511ZM27.5574 113.318C29.234 107.891 30.8392 103.143 32.3123 98.7846L30.8913 98.3043C29.4185 102.661 27.8074 107.427 26.1242 112.875L27.5574 113.318ZM32.3123 98.7846C35.7668 88.565 38.5069 80.4665 39.6659 70.9402L38.1768 70.759C37.0395 80.1077 34.3532 88.0626 30.8913 98.3043L32.3123 98.7846Z" fill="black"/>
</svg>
